<svg width="20" height="18" viewBox="0 0 20 18" fill="none" xmlns="http://www.w3.org/2000/svg">
<g clip-path="url(#clip0_4452_1531)" filter="url(#filter0_d_4452_1531)">
<path d="M15.815 5.33268C15.584 4.93568 15.159 4.66602 14.6667 4.66602H10V5.33268H15.815ZM4 11.3327H16V11.9993H4V11.3327ZM10 8.66602H16V9.33268H10V8.66602ZM10 7.33268H16V7.99935H10V7.33268ZM4 9.99935H16V10.666H4V9.99935ZM5.33333 13.3327H14.6667C15.159 13.3327 15.584 13.063 15.815 12.666H4.185C4.416 13.063 4.841 13.3327 5.33333 13.3327ZM10 5.99935H16V6.66602H10V5.99935Z" fill="#D52B1E"/>
<path d="M4.02267 12.227C4.02822 12.2581 4.03478 12.2889 4.04233 12.3193C4.05122 12.3527 4.06144 12.3855 4.073 12.418C4.10267 12.5043 4.13867 12.5877 4.184 12.6657L4.185 12.6673H15.815L15.8157 12.666C15.8608 12.5876 15.8979 12.5049 15.9263 12.419C15.948 12.3563 15.9649 12.2922 15.977 12.227C15.9907 12.1537 16 12.0783 16 12.0007H4C4 12.0783 4.00933 12.1533 4.02267 12.227ZM4 10.6673H16V11.334H4V10.6673ZM4 9.33398V10.0007H16V9.33398H10H4ZM10 8.00065H16V8.66732H10V8.00065ZM10 6.66732H16V7.33398H10V6.66732ZM4.04267 5.68198C4.051 5.64798 4.06267 5.61565 4.07333 5.58298C4.06183 5.61557 4.0516 5.6486 4.04267 5.68198ZM10 6.00065H16C16 5.92298 15.9907 5.84765 15.977 5.77398C15.9653 5.70868 15.9483 5.64446 15.926 5.58198C15.8975 5.49575 15.8603 5.41266 15.815 5.33398H10V6.00065Z" fill="#EEEEEE"/>
<path d="M10 4.66602H5.33333C4.97971 4.66602 4.64057 4.80649 4.39052 5.05654C4.14048 5.30659 4 5.64573 4 5.99935V9.33268H10V4.66602Z" fill="#3C3B6E"/>
<path d="M4.66699 5.57598L4.87299 5.72565L4.79433 5.96732L4.99999 5.81798L5.20599 5.96732L5.12733 5.72565L5.33333 5.57598H5.07866L4.99999 5.33398L4.92166 5.57598H4.66699ZM5.33366 6.24265L5.53966 6.39232L5.46099 6.63398L5.66666 6.48465L5.87266 6.63398L5.79399 6.39232L5.99999 6.24265H5.74533L5.66666 6.00065L5.58833 6.24265H5.33366ZM6.66699 6.24265L6.87299 6.39232L6.79433 6.63398L6.99999 6.48465L7.20599 6.63398L7.12733 6.39232L7.33333 6.24265H7.07866L6.99999 6.00065L6.92166 6.24265H6.66699ZM8.00033 6.24265L8.20633 6.39232L8.12766 6.63398L8.33333 6.48465L8.53933 6.63398L8.46066 6.39232L8.66666 6.24265H8.41199L8.33333 6.00065L8.25499 6.24265H8.00033ZM5.33366 7.57598L5.53966 7.72565L5.46099 7.96732L5.66666 7.81798L5.87266 7.96732L5.79399 7.72565L5.99999 7.57598H5.74533L5.66666 7.33398L5.58833 7.57598H5.33366ZM6.66699 7.57598L6.87299 7.72565L6.79433 7.96732L6.99999 7.81798L7.20599 7.96732L7.12733 7.72565L7.33333 7.57598H7.07866L6.99999 7.33398L6.92166 7.57598H6.66699ZM8.00033 7.57598L8.20633 7.72565L8.12766 7.96732L8.33333 7.81798L8.53933 7.96732L8.46066 7.72565L8.66666 7.57598H8.41199L8.33333 7.33398L8.25499 7.57598H8.00033ZM6.00033 5.57598L6.20633 5.72565L6.12766 5.96732L6.33333 5.81798L6.53933 5.96732L6.46066 5.72565L6.66666 5.57598H6.41199L6.33333 5.33398L6.25499 5.57598H6.00033ZM7.33366 5.57598L7.53966 5.72565L7.46099 5.96732L7.66666 5.81798L7.87266 5.96732L7.79399 5.72565L7.99999 5.57598H7.74533L7.66666 5.33398L7.58833 5.57598H7.33366ZM8.66699 5.57598L8.87299 5.72565L8.79433 5.96732L8.99999 5.81798L9.20599 5.96732L9.12733 5.72565L9.33333 5.57598H9.07866L8.99999 5.33398L8.92166 5.57598H8.66699ZM4.66699 6.90932L4.87299 7.05898L4.79433 7.30065L4.99999 7.15132L5.20599 7.30065L5.12733 7.05898L5.33333 6.90932H5.07866L4.99999 6.66732L4.92166 6.90932H4.66699ZM6.12766 7.30065L6.33333 7.15132L6.53933 7.30065L6.46066 7.05898L6.66666 6.90932H6.41199L6.33333 6.66732L6.25499 6.90932H6.00033L6.20633 7.05898L6.12766 7.30065ZM7.33366 6.90932L7.53966 7.05898L7.46099 7.30065L7.66666 7.15132L7.87266 7.30065L7.79399 7.05898L7.99999 6.90932H7.74533L7.66666 6.66732L7.58833 6.90932H7.33366ZM8.66699 6.90932L8.87299 7.05898L8.79433 7.30065L8.99999 7.15132L9.20599 7.30065L9.12733 7.05898L9.33333 6.90932H9.07866L8.99999 6.66732L8.92166 6.90932H8.66699ZM4.66699 8.24265L4.87299 8.39232L4.79433 8.63398L4.99999 8.48465L5.20599 8.63398L5.12733 8.39232L5.33333 8.24265H5.07866L4.99999 8.00065L4.92166 8.24265H4.66699ZM6.12766 8.63398L6.33333 8.48465L6.53933 8.63398L6.46066 8.39232L6.66666 8.24265H6.41199L6.33333 8.00065L6.25499 8.24265H6.00033L6.20633 8.39232L6.12766 8.63398ZM7.33366 8.24265L7.53966 8.39232L7.46099 8.63398L7.66666 8.48465L7.87266 8.63398L7.79399 8.39232L7.99999 8.24265H7.74533L7.66666 8.00065L7.58833 8.24265H7.33366ZM8.66699 8.24265L8.87299 8.39232L8.79433 8.63398L8.99999 8.48465L9.20599 8.63398L9.12733 8.39232L9.33333 8.24265H9.07866L8.99999 8.00065L8.92166 8.24265H8.66699Z" fill="white"/>
</g>
<defs>
<filter id="filter0_d_4452_1531" x="0" y="-1" width="20" height="20" filterUnits="userSpaceOnUse" color-interpolation-filters="sRGB">
<feFlood flood-opacity="0" result="BackgroundImageFix"/>
<feColorMatrix in="SourceAlpha" type="matrix" values="0 0 0 0 0 0 0 0 0 0 0 0 0 0 0 0 0 0 127 0" result="hardAlpha"/>
<feOffset/>
<feGaussianBlur stdDeviation="2"/>
<feComposite in2="hardAlpha" operator="out"/>
<feColorMatrix type="matrix" values="0 0 0 0 0 0 0 0 0 0 0 0 0 0 0 0 0 0 0.15 0"/>
<feBlend mode="normal" in2="BackgroundImageFix" result="effect1_dropShadow_4452_1531"/>
<feBlend mode="normal" in="SourceGraphic" in2="effect1_dropShadow_4452_1531" result="shape"/>
</filter>
<clipPath id="clip0_4452_1531">
<rect width="12" height="12" fill="white" transform="translate(4 3)"/>
</clipPath>
</defs>
</svg>
