<svg width="102" height="20" viewBox="0 0 102 20" fill="none" xmlns="http://www.w3.org/2000/svg">
<path d="M12.7334 19L11.8584 16.25H5.3584L4.4834 19H0.108398L6.0584 1.5H11.1584L17.1084 19H12.7334ZM6.5584 12.5H10.6584L8.6084 6.075L6.5584 12.5ZM27.1844 1.5H30.9344V19H27.1844V17.825C26.3594 18.775 25.1344 19.35 23.4594 19.35C20.1844 19.35 17.4844 16.475 17.4844 12.75C17.4844 9.025 20.1844 6.15 23.4594 6.15C25.1344 6.15 26.3594 6.725 27.1844 7.675V1.5ZM24.2094 15.8C25.9344 15.8 27.1844 14.625 27.1844 12.75C27.1844 10.875 25.9344 9.7 24.2094 9.7C22.4844 9.7 21.2344 10.875 21.2344 12.75C21.2344 14.625 22.4844 15.8 24.2094 15.8ZM47.6855 6.15C50.5605 6.15 52.4355 8.2 52.4355 11.325V19H48.6855V11.65C48.6855 10.4 48.0855 9.6 46.8855 9.6C45.6355 9.6 44.9355 10.475 44.9355 11.95V19H41.1855V11.65C41.1855 10.4 40.5855 9.6 39.3855 9.6C38.1355 9.6 37.4355 10.475 37.4355 11.95V19H33.6855V6.5H37.4355V7.65C38.0105 6.8 39.1105 6.15 40.7855 6.15C42.2605 6.15 43.3605 6.75 44.0605 7.8C44.7605 6.8 45.9105 6.15 47.6855 6.15ZM56.874 5.4C55.649 5.4 54.624 4.375 54.624 3.15C54.624 1.925 55.649 0.899999 56.874 0.899999C58.099 0.899999 59.124 1.925 59.124 3.15C59.124 4.375 58.099 5.4 56.874 5.4ZM54.999 19V6.5H58.749V19H54.999ZM68.8182 6.15C71.3432 6.15 73.4932 7.95 73.4932 11.325V19H69.7432V11.875C69.7432 10.325 68.7682 9.6 67.5682 9.6C66.1932 9.6 65.2432 10.4 65.2432 12.175V19H61.4932V6.5H65.2432V7.675C65.9182 6.75 67.1682 6.15 68.8182 6.15ZM88.0684 19H83.8184L79.8184 13.475V19H76.0684V1.5H79.8184V11.975L83.5684 6.5H87.9434L83.3934 12.75L88.0684 19ZM97.7654 6.5H101.515V19H97.7654V17.825C96.9404 18.775 95.7154 19.35 94.0404 19.35C90.7654 19.35 88.0654 16.475 88.0654 12.75C88.0654 9.025 90.7654 6.15 94.0404 6.15C95.7154 6.15 96.9404 6.725 97.7654 7.675V6.5ZM94.7904 15.8C96.5154 15.8 97.7654 14.625 97.7654 12.75C97.7654 10.875 96.5154 9.7 94.7904 9.7C93.0654 9.7 91.8154 10.875 91.8154 12.75C91.8154 14.625 93.0654 15.8 94.7904 15.8Z" fill="#5A94FF"/>
</svg>
