<svg width="22" height="22" viewBox="0 0 22 22" fill="none" xmlns="http://www.w3.org/2000/svg">
<path d="M18.4121 19.3691L12.9121 13.8691M1.91211 9.28581C1.91211 10.1285 2.07808 10.9629 2.40055 11.7414C2.72302 12.5199 3.19566 13.2272 3.79151 13.8231C4.38735 14.4189 5.09472 14.8916 5.87322 15.214C6.65173 15.5365 7.48613 15.7025 8.32878 15.7025C9.17142 15.7025 10.0058 15.5365 10.7843 15.214C11.5628 14.8916 12.2702 14.4189 12.866 13.8231C13.4619 13.2272 13.9345 12.5199 14.257 11.7414C14.5795 10.9629 14.7454 10.1285 14.7454 9.28581C14.7454 8.44316 14.5795 7.60876 14.257 6.83026C13.9345 6.05175 13.4619 5.34438 12.866 4.74854C12.2702 4.1527 11.5628 3.68005 10.7843 3.35758C10.0058 3.03511 9.17142 2.86914 8.32878 2.86914C7.48613 2.86914 6.65173 3.03511 5.87322 3.35758C5.09472 3.68005 4.38735 4.1527 3.79151 4.74854C3.19566 5.34438 2.72302 6.05175 2.40055 6.83026C2.07808 7.60876 1.91211 8.44316 1.91211 9.28581Z" stroke="black" stroke-width="2" stroke-linecap="round" stroke-linejoin="round"/>
</svg>
